<svg xmlns="http://www.w3.org/2000/svg" viewBox="0 0 256.2 134.09"><defs><style>.cls-1{fill:#0099d9;}.cls-2{fill:#28a838;}.cls-3{fill:#d7a600;}.cls-4{fill:#c60f28;}.cls-5{fill:#00973b;}.cls-6{fill:#427935;}.cls-7{fill:#fabd00;}.cls-8{fill:#e83819;}.cls-9{fill:#f5a200;}.cls-10{fill:#0075ba;}.cls-11{fill:#970b31;}.cls-12{fill:#00a6d9;}.cls-13{fill:#ed6a02;}.cls-14{fill:#e5001e;}.cls-15{fill:#dc007a;}.cls-16{fill:#003067;}.cls-17{fill:#d39200;}.cls-18{fill:#004c88;}</style></defs><g id="レイヤー_2" data-name="レイヤー 2"><g id="レイヤー_1-2" data-name="レイヤー 1"><path class="cls-1" d="M48.48,125.64a21.25,21.25,0,0,1-9.27,6.18,38.94,38.94,0,0,1-13.33,2.27,26.47,26.47,0,0,1-13.5-3.26,22.4,22.4,0,0,1-9-9.68,34.28,34.28,0,0,1-3.33-15l0-4A36.35,36.35,0,0,1,2.89,86.76a22.14,22.14,0,0,1,8.55-10,24.85,24.85,0,0,1,13.17-3.53q10.53-.06,16.51,4.91t7.13,14.58l-11.87.08c-.57-3.39-1.78-5.86-3.65-7.42a11.51,11.51,0,0,0-7.68-2.31,10.82,10.82,0,0,0-9.45,4.75q-3.22,4.69-3.2,13.93l0,3.78q.06,9.32,3.63,14t10.41,4.68q6.87,0,9.78-3l-.07-10.21-11.11.08-.06-9L48.32,102Z"/><path class="cls-1" d="M149.23,120.23l-21.39.15-4,12.23-13,.09,21.64-59.37,11.31-.07,22.57,59.06-13,.09Zm-18.16-9.76,14.8-.1-7.59-22.11Z"/><path class="cls-1" d="M182.23,122.41l25.9-.18.07,9.8-38.11.26-.4-59.21,12.2-.08Z"/><path class="cls-1" d="M244,116.25a6.26,6.26,0,0,0-2.47-5.29q-2.46-1.83-8.81-3.84a62.6,62.6,0,0,1-10.08-4q-10.12-5.39-10.18-14.61A14.28,14.28,0,0,1,215.06,80,17.63,17.63,0,0,1,222.79,74a29.14,29.14,0,0,1,11.35-2.19,26.55,26.55,0,0,1,11.32,2.22,17.93,17.93,0,0,1,7.75,6.43A17,17,0,0,1,256,90l-12.2.08a8,8,0,0,0-2.6-6.31q-2.58-2.23-7.21-2.2a11.22,11.22,0,0,0-6.95,1.94,5.94,5.94,0,0,0-2.44,5,5.68,5.68,0,0,0,2.94,4.82,32.94,32.94,0,0,0,8.58,3.61q10.44,3.06,15.23,7.66a15.48,15.48,0,0,1,4.83,11.52,14.25,14.25,0,0,1-5.73,12.1q-5.79,4.41-15.63,4.47a30.12,30.12,0,0,1-12.46-2.41,19.72,19.72,0,0,1-8.61-6.8,17.51,17.51,0,0,1-3-10.06L223,113.3q.06,9.81,11.78,9.73a11.4,11.4,0,0,0,6.78-1.82A5.75,5.75,0,0,0,244,116.25Z"/><path class="cls-2" d="M70.14,95.11a16.81,16.81,0,0,1,2.67-3.43l-8.75-9.59a29.69,29.69,0,0,0-5.55,7.23Z"/><path class="cls-3" d="M91.58,88.34a16.51,16.51,0,0,1,3.67,2.29L104,81.06a29.85,29.85,0,0,0-7.77-4.85Z"/><path class="cls-4" d="M111.67,91.22,100.05,97a16.64,16.64,0,0,1,1.16,4.1l12.93-1.22a29.5,29.5,0,0,0-2.47-8.68"/><path class="cls-5" d="M99.21,95.34l11.63-5.8a29.79,29.79,0,0,0-5.44-7.21L96.63,91.9a16.73,16.73,0,0,1,2.58,3.44"/><path class="cls-6" d="M67.83,103.6c0-.26,0-.53,0-.79l-12.94-1.15c0,.64-.06,1.28-.06,1.94a29.87,29.87,0,0,0,.88,7.19l12.49-3.58a17.21,17.21,0,0,1-.39-3.61"/><path class="cls-7" d="M97.58,114.23a17,17,0,0,1-3.15,3l6.83,11A29.9,29.9,0,0,0,108,122Z"/><path class="cls-8" d="M101.39,103.6a16.83,16.83,0,0,1-.38,3.57l12.49,3.59a29.74,29.74,0,0,0,.87-7.16c0-.62,0-1.22-.06-1.83L101.38,103c0,.2,0,.4,0,.61"/><path class="cls-9" d="M71.85,114.48l-10.34,7.85a29.79,29.79,0,0,0,6.75,6.12l6.83-11a16.38,16.38,0,0,1-3.24-2.92"/><path class="cls-10" d="M68,101a16.34,16.34,0,0,1,1.24-4.17L57.66,91a29.33,29.33,0,0,0-2.57,8.8Z"/><path class="cls-11" d="M99.67,129.26l-6.82-11a16.72,16.72,0,0,1-4,1.62l2.41,12.77a29.63,29.63,0,0,0,8.39-3.34"/><path class="cls-12" d="M100.51,109a16.61,16.61,0,0,1-1.82,3.74l10.37,7.83a29.52,29.52,0,0,0,3.93-8Z"/><path class="cls-13" d="M87,120.2a16.13,16.13,0,0,1-2.42.18,15.71,15.71,0,0,1-2-.12L80.25,133a29.93,29.93,0,0,0,4.36.32,30.63,30.63,0,0,0,4.82-.39Z"/><path class="cls-14" d="M85.68,86.85a16.84,16.84,0,0,1,4.16.8L94.5,75.53a29.66,29.66,0,0,0-8.82-1.67Z"/><path class="cls-15" d="M80.81,119.94a16.23,16.23,0,0,1-4.12-1.56l-6.83,11.06a29.68,29.68,0,0,0,8.54,3.26Z"/><path class="cls-16" d="M79.57,87.59a16.89,16.89,0,0,1,4.24-.75v-13a29.37,29.37,0,0,0-8.94,1.63Z"/><path class="cls-17" d="M70.71,113a16.31,16.31,0,0,1-2-4L56.24,112.6a29.63,29.63,0,0,0,4.13,8.24Z"/><path class="cls-18" d="M74.21,90.44a16.7,16.7,0,0,1,3.6-2.18L73.12,76.15a29.41,29.41,0,0,0-7.66,4.69Z"/><path class="cls-1" d="M15.56,20.22a2.67,2.67,0,0,0-1-2.23A12.63,12.63,0,0,0,11,16.34a34.57,34.57,0,0,1-4.16-1.65q-5.25-2.58-5.26-7.1a6.37,6.37,0,0,1,1.31-4A8.41,8.41,0,0,1,6.59,1,14.33,14.33,0,0,1,12,0,12.68,12.68,0,0,1,17.2,1a8.23,8.23,0,0,1,3.59,3,7.7,7.7,0,0,1,1.28,4.39h-6.5a3.25,3.25,0,0,0-1-2.56,3.93,3.93,0,0,0-2.74-.91,4.45,4.45,0,0,0-2.75.77,2.36,2.36,0,0,0-1,2A2.39,2.39,0,0,0,9.17,9.53a13.79,13.79,0,0,0,3.92,1.75,24.36,24.36,0,0,1,4.6,1.94q4.38,2.52,4.38,7a6.6,6.6,0,0,1-2.67,5.57,11.9,11.9,0,0,1-7.34,2A14.66,14.66,0,0,1,6.11,26.6a9.1,9.1,0,0,1-4-3.23A8.5,8.5,0,0,1,.76,18.64H7.29a4.12,4.12,0,0,0,1.13,3.2,5.28,5.28,0,0,0,3.64,1,4.25,4.25,0,0,0,2.56-.69A2.32,2.32,0,0,0,15.56,20.22Z"/><path class="cls-1" d="M47,.37v17.7a10.18,10.18,0,0,1-1.28,5.2A8.26,8.26,0,0,1,42,26.62a12.91,12.91,0,0,1-5.66,1.16,11.16,11.16,0,0,1-7.78-2.57,9.1,9.1,0,0,1-2.9-7V.37h6.56v18q.1,4.43,4.12,4.43a4,4,0,0,0,3.06-1.11,5.22,5.22,0,0,0,1-3.62V.37Z"/><path class="cls-1" d="M65.39,20.22a2.69,2.69,0,0,0-1-2.23,12.73,12.73,0,0,0-3.56-1.65,34.57,34.57,0,0,1-4.16-1.65q-5.25-2.58-5.25-7.1a6.31,6.31,0,0,1,1.31-4A8.32,8.32,0,0,1,56.42,1,14.36,14.36,0,0,1,61.8,0,12.65,12.65,0,0,1,67,1a8.23,8.23,0,0,1,3.59,3A7.7,7.7,0,0,1,71.9,8.39H65.41a3.26,3.26,0,0,0-1-2.56,3.9,3.9,0,0,0-2.73-.91,4.46,4.46,0,0,0-2.76.77,2.35,2.35,0,0,0-1,2A2.37,2.37,0,0,0,59,9.53a13.79,13.79,0,0,0,3.92,1.75,24.08,24.08,0,0,1,4.6,1.94q4.38,2.52,4.38,7a6.6,6.6,0,0,1-2.67,5.57,11.88,11.88,0,0,1-7.33,2A14.63,14.63,0,0,1,56,26.6a9,9,0,0,1-4-3.23,8.43,8.43,0,0,1-1.35-4.73h6.54a4.12,4.12,0,0,0,1.12,3.2,5.29,5.29,0,0,0,3.65,1,4.24,4.24,0,0,0,2.55-.69A2.32,2.32,0,0,0,65.39,20.22Z"/><path class="cls-1" d="M96.85,5.4H88.73v22H82.22V5.4h-8v-5h22.6Z"/><path class="cls-1" d="M113.1,22.35h-8.93l-1.56,5h-7l9.92-27h6.12l10,27h-7Zm-7.37-5h5.81L108.63,8Z"/><path class="cls-1" d="M131,27.4h-6.5V.37H131Z"/><path class="cls-1" d="M158.46,27.4H152L142.4,10.58V27.4h-6.52V.37h6.52L152,17.19V.37h6.5Z"/><path class="cls-1" d="M178.65,22.35h-8.93l-1.56,5h-7l9.91-27h6.13l10,27h-7Zm-7.37-5h5.81L174.18,8Z"/><path class="cls-1" d="M189.58,27.4V.37h9.71c3.48,0,6.12.64,7.94,1.91a6.38,6.38,0,0,1,2.71,5.56,6.47,6.47,0,0,1-1,3.58,5.61,5.61,0,0,1-2.84,2.19,5.69,5.69,0,0,1,3.25,2.08,6.06,6.06,0,0,1,1.13,3.71,7.15,7.15,0,0,1-2.52,6c-1.67,1.33-4.16,2-7.45,2Zm6.51-15.76h3.4a4.84,4.84,0,0,0,3-.78,2.79,2.79,0,0,0,.91-2.25,2.9,2.9,0,0,0-1-2.47,5.25,5.25,0,0,0-3.17-.76h-3.2Zm0,4.27v6.48h4.27a4.09,4.09,0,0,0,2.72-.81,2.82,2.82,0,0,0,.94-2.27c0-2.25-1.12-3.39-3.36-3.4Z"/><path class="cls-1" d="M221,22.39h11.34v5H214.48V.37H221Z"/><path class="cls-1" d="M252.24,15.93H242v6.46H254.1v5H235.47V.37h18.66v5H242v5.7h10.25Z"/><path class="cls-1" d="M1.59,64V37.48h8.53a12.56,12.56,0,0,1,6.31,1.59,11.12,11.12,0,0,1,4.37,4.49,13.7,13.7,0,0,1,1.6,6.51v1.22a13.7,13.7,0,0,1-1.54,6.52,11.32,11.32,0,0,1-4.33,4.51A12.31,12.31,0,0,1,10.3,64ZM8,42.41V59.05h2.22a5,5,0,0,0,4.22-1.95,9.61,9.61,0,0,0,1.47-5.81V50.14a9.49,9.49,0,0,0-1.47-5.78,5,5,0,0,0-4.29-2Z"/><path class="cls-1" d="M40.7,52.72H31.32v6.33h11.2V64H24.94V37.48H42.55v4.93H31.32V48H40.7Z"/><path class="cls-1" d="M56.52,56.76l5.27-19.28h7.14L60,64H53L44.18,37.48h7.08Z"/><path class="cls-1" d="M86.52,52.72H77.24v6.33h11.1V64H70.85V37.48H88.38v4.93H77.24V48h9.28Z"/><path class="cls-1" d="M96.92,59.05H107V64H90.54V37.48h6.38Z"/><path class="cls-1" d="M130.78,51.27a15.75,15.75,0,0,1-1.43,6.86,10.58,10.58,0,0,1-4.09,4.59,11.38,11.38,0,0,1-6,1.61,11.52,11.52,0,0,1-6-1.56,10.52,10.52,0,0,1-4.08-4.44,15.14,15.14,0,0,1-1.54-6.64V50.2A15.57,15.57,0,0,1,109,43.33a10.54,10.54,0,0,1,4.09-4.6,11.45,11.45,0,0,1,6.07-1.61,11.32,11.32,0,0,1,6,1.6,10.68,10.68,0,0,1,4.1,4.55,15.16,15.16,0,0,1,1.48,6.78Zm-6.49-1.11a11.17,11.17,0,0,0-1.32-6,4.23,4.23,0,0,0-3.77-2q-4.82,0-5.08,7.2l0,2a11.45,11.45,0,0,0,1.29,6,4.22,4.22,0,0,0,3.84,2.1A4.17,4.17,0,0,0,123,57.29a11.14,11.14,0,0,0,1.33-5.91Z"/><path class="cls-1" d="M139.71,55v9h-6.39V37.48h10.57a12.22,12.22,0,0,1,5.37,1.12,8.33,8.33,0,0,1,3.62,3.18,8.68,8.68,0,0,1,1.29,4.69,7.67,7.67,0,0,1-2.78,6.19A11.48,11.48,0,0,1,143.78,55Zm0-4.93h4.18a3.94,3.94,0,0,0,2.83-.93,3.44,3.44,0,0,0,1-2.62,4.25,4.25,0,0,0-1-3A3.55,3.55,0,0,0,144,42.41h-4.25Z"/><path class="cls-1" d="M164.9,37.48l5.91,18.43,5.89-18.43h8.41V64H178.7V57.78l.62-12.66L172.92,64H168.7L162.28,45.1l.62,12.68V64h-6.39V37.48Z"/><path class="cls-1" d="M203.74,52.72h-9.4v6.33h11.22V64H188V37.48h17.64v4.93H194.34V48h9.4Z"/><path class="cls-1" d="M229.83,64h-6.35l-9.39-16.49V64h-6.38V37.48h6.38L223.46,54V37.48h6.37Z"/><path class="cls-1" d="M254.13,42.41h-7.95V64H239.8V42.41H232V37.48h22.14Z"/></g></g></svg>